<svg width="145" height="145" viewBox="0 0 145 145" fill="none" xmlns="http://www.w3.org/2000/svg">
<path d="M118.9 11.6H26.1C18.096 11.6 11.6 18.096 11.6 26.1V118.9C11.6 126.904 18.096 133.4 26.1 133.4H118.9C126.904 133.4 133.4 126.904 133.4 118.9V26.1C133.4 18.096 126.904 11.6 118.9 11.6ZM49.3 58V113.1H31.9V58H49.3ZM31.9 41.963C31.9 37.903 35.38 34.8 40.6 34.8C45.82 34.8 49.097 37.903 49.3 41.963C49.3 46.023 46.052 49.3 40.6 49.3C35.38 49.3 31.9 46.023 31.9 41.963ZM113.1 113.1H95.7C95.7 113.1 95.7 86.246 95.7 84.1C95.7 78.3 92.8 72.5 85.55 72.384H85.318C78.3 72.384 75.4 78.358 75.4 84.1C75.4 86.739 75.4 113.1 75.4 113.1H58V58H75.4V65.424C75.4 65.424 80.997 58 92.249 58C103.762 58 113.1 65.917 113.1 81.954V113.1Z" fill="#131111"/>
</svg>
