<svg width="119" height="123" viewBox="0 0 119 123" fill="none" xmlns="http://www.w3.org/2000/svg">
<g clip-path="url(#clip0_24_128)">
<path d="M71.75 115.29C70.1293 117.761 67.8924 119.767 65.26 121.11C63.0509 122.285 60.5871 122.899 58.085 122.899C55.5829 122.899 53.1191 122.285 50.91 121.11C49.3387 120.224 47.9425 119.058 46.79 117.67L71.79 115.33L71.75 115.29ZM71.55 45.17C71.3833 44.9966 71.1828 44.8593 70.9609 44.7664C70.7391 44.6735 70.5005 44.6271 70.26 44.63C70.018 44.6269 69.7779 44.6732 69.5543 44.766C69.3308 44.8589 69.1286 44.9963 68.96 45.17L66.96 47.17C66.4268 46.8225 65.8686 46.515 65.29 46.25C64.7 45.99 64.1 45.75 63.5 45.55V42.55C63.5013 42.3098 63.4548 42.0717 63.3632 41.8496C63.2716 41.6275 63.1367 41.4259 62.9664 41.2565C62.796 41.0871 62.5937 40.9533 62.3711 40.8629C62.1485 40.7725 61.9102 40.7273 61.67 40.73H57.87C57.6317 40.726 57.3951 40.771 57.175 40.8621C56.9548 40.9533 56.7557 41.0887 56.59 41.26C56.4118 41.4235 56.2706 41.6232 56.1758 41.8456C56.0809 42.0681 56.0346 42.3082 56.04 42.55V45.33C55.4143 45.4775 54.7995 45.668 54.2 45.9C53.6141 46.1236 53.0429 46.3841 52.49 46.68L50.31 44.53C50.1503 44.3524 49.9542 44.2113 49.735 44.1163C49.5159 44.0214 49.2788 43.9749 49.04 43.98C48.7972 43.9776 48.5564 44.0252 48.3328 44.1198C48.1091 44.2144 47.9074 44.3541 47.74 44.53L45.1 47.15C44.9233 47.3147 44.7831 47.5146 44.6884 47.7368C44.5937 47.959 44.5465 48.1985 44.55 48.44C44.5464 48.683 44.5934 48.9241 44.6881 49.1479C44.7828 49.3717 44.9231 49.5734 45.1 49.74L47.1 51.74C46.7595 52.2756 46.4555 52.8335 46.19 53.41C45.9248 53.9937 45.6911 54.5912 45.49 55.2H42.49C42.2465 55.1892 42.0033 55.2277 41.7751 55.3132C41.5468 55.3987 41.3382 55.5294 41.1617 55.6975C40.9852 55.8656 40.8445 56.0676 40.7479 56.2915C40.6514 56.5153 40.6011 56.7563 40.6 57V60.8C40.5994 61.0378 40.6459 61.2733 40.7369 61.493C40.8279 61.7127 40.9615 61.9122 41.13 62.08C41.2962 62.2574 41.4978 62.398 41.7217 62.4928C41.9456 62.5875 42.1869 62.6342 42.43 62.63H45.21C45.3484 63.2582 45.539 63.8736 45.78 64.47C46.0031 65.0658 46.2636 65.647 46.56 66.21L44.4 68.37C44.2239 68.5309 44.0838 68.7272 43.989 68.9461C43.8942 69.165 43.8468 69.4015 43.85 69.64C43.8499 69.8825 43.8986 70.1225 43.993 70.3458C44.0875 70.5692 44.2259 70.7712 44.4 70.94L47.07 73.64C47.4233 73.9683 47.8877 74.1507 48.37 74.1507C48.8523 74.1507 49.3167 73.9683 49.67 73.64L51.67 71.64C52.2078 71.9826 52.7692 72.2867 53.35 72.55C53.933 72.8169 54.5306 73.0506 55.14 73.25V76.25C55.1344 76.4915 55.1786 76.7315 55.2698 76.9551C55.3609 77.1788 55.4972 77.3813 55.67 77.55C55.8394 77.7219 56.0421 77.8575 56.2655 77.9486C56.489 78.0397 56.7287 78.0844 56.97 78.08H60.77C61.2301 78.0735 61.6703 77.891 62 77.57C62.1741 77.4018 62.3119 77.1996 62.4048 76.976C62.4977 76.7524 62.5437 76.5121 62.54 76.27V73.49C63.1718 73.353 63.7907 73.1623 64.39 72.92C64.9858 72.6969 65.567 72.4364 66.13 72.14L68.3 74.3C68.4645 74.4743 68.6629 74.6132 68.883 74.7081C69.1031 74.8031 69.3403 74.852 69.58 74.852C69.8197 74.852 70.0569 74.8031 70.277 74.7081C70.4971 74.6132 70.6955 74.4743 70.86 74.3L73.56 71.63C73.8882 71.2767 74.0707 70.8123 74.0707 70.33C74.0707 69.8477 73.8882 69.3833 73.56 69.03L71.56 67.03C71.9096 66.4946 72.2172 65.9329 72.48 65.35C72.74 64.76 72.98 64.17 73.18 63.56H76.18C76.4177 63.5613 76.6533 63.5158 76.8734 63.4261C77.0935 63.3363 77.2938 63.2041 77.4628 63.0369C77.6318 62.8698 77.7662 62.671 77.8584 62.4519C77.9506 62.2328 77.9987 61.9977 78 61.76V58C78.0028 57.7619 77.9573 57.5257 77.8662 57.3057C77.7751 57.0856 77.6403 56.8864 77.47 56.72C77.3044 56.5452 77.1041 56.4068 76.882 56.3138C76.6599 56.2209 76.4208 56.1753 76.18 56.18H73.42C73.2681 55.5588 73.0777 54.9476 72.85 54.35C72.6283 53.76 72.3678 53.1854 72.07 52.63L74.22 50.44C74.3987 50.2812 74.5405 50.0852 74.6355 49.8659C74.7305 49.6465 74.7764 49.409 74.77 49.17C74.7722 48.9287 74.7245 48.6895 74.6299 48.4675C74.5352 48.2455 74.3957 48.0455 74.22 47.88L71.55 45.21V45.17ZM59.31 49.28C60.6635 49.2712 62.0045 49.5401 63.25 50.07C65.6822 51.0844 67.6156 53.0178 68.63 55.45C69.1515 56.6981 69.42 58.0373 69.42 59.39C69.42 60.7427 69.1515 62.0819 68.63 63.33C68.1216 64.5311 67.3885 65.624 66.47 66.55C65.5423 67.4664 64.4498 68.1993 63.25 68.71C60.7263 69.7501 57.8937 69.7501 55.37 68.71C52.9416 67.6934 51.012 65.7603 50 63.33C48.9599 60.8063 48.9599 57.9737 50 55.45C50.5107 54.2502 51.2436 53.1577 52.16 52.23C53.086 51.3115 54.1789 50.5784 55.38 50.07C56.6258 49.5412 57.9666 49.2724 59.32 49.28H59.31ZM34.4 86C33.05 84.28 31.68 82.53 30.33 80.48C28.8458 78.236 27.5863 75.8511 26.57 73.36C25.5047 70.7345 24.7106 68.007 24.2 65.22C23.7008 62.4464 23.5363 59.6228 23.71 56.81C23.904 53.8905 24.4547 51.0057 25.35 48.22C26.3224 45.2094 27.6306 42.3179 29.25 39.6L29.42 39.35C31.4705 36.2396 34.0098 33.4807 36.94 31.18C39.832 28.9115 43.0837 27.1437 46.56 25.95L46.82 25.87C49.44 24.9874 52.1558 24.4201 54.91 24.18C57.8141 23.935 60.7367 24.0256 63.62 24.45C66.4335 24.8698 69.193 25.594 71.85 26.61C74.5035 27.626 77.0357 28.934 79.4 30.51C82.4786 32.5626 85.2182 35.0829 87.52 37.98C89.7641 40.8064 91.5153 43.9911 92.7 47.4C93.373 49.3541 93.8815 51.3611 94.22 53.4C94.5855 55.5699 94.7363 57.7705 94.67 59.97C94.6001 62.4322 94.2648 64.8797 93.67 67.27C93.0592 69.7288 92.205 72.1206 91.12 74.41C88.82 79.34 84.89 84.21 81 89C79 91.45 77.07 93.86 75.41 96.21C75.0591 96.7113 74.569 97.0988 74.0003 97.3245C73.4316 97.5502 72.8091 97.6043 72.21 97.48L43.21 100.18C42.4912 100.221 41.78 100.014 41.1956 99.5939C40.6112 99.1733 40.1891 98.5647 40 97.87C39.3613 95.5618 38.5318 93.3107 37.52 91.14C36.6726 89.3169 35.6262 87.5931 34.4 86ZM35.56 77C36.74 78.79 38.04 80.47 39.33 82.11C40.8357 84.0815 42.1169 86.2147 43.15 88.47C43.9386 90.1624 44.6298 91.8986 45.22 93.67L71.27 91.25C72.78 89.25 74.45 87.14 76.14 85.04C79.78 80.54 83.5 75.95 85.48 71.71C86.3908 69.787 87.1044 67.7768 87.61 65.71C88.0955 63.7448 88.3704 61.7334 88.43 59.71C88.4669 57.8989 88.3397 56.0882 88.05 54.3C87.7596 52.6014 87.3315 50.9292 86.77 49.3C85.8164 46.5598 84.4065 44.0004 82.6 41.73C80.7028 39.3415 78.4418 37.2662 75.9 35.58C73.9318 34.2697 71.8217 33.1861 69.61 32.35C67.3803 31.492 65.0631 30.8816 62.7 30.53C60.2966 30.1769 57.8604 30.1031 55.44 30.31C53.1944 30.498 50.979 30.9511 48.84 31.66L48.59 31.76C45.7683 32.723 43.1283 34.1529 40.78 35.99C38.4098 37.8598 36.348 40.0904 34.67 42.6V42.66C33.2879 44.9668 32.1708 47.4224 31.34 49.98C30.5943 52.3077 30.1441 54.72 30 57.16C29.8613 59.5017 30.0023 61.8517 30.42 64.16C30.8463 66.5165 31.5166 68.8222 32.42 71.04C33.2712 73.142 34.3333 75.1523 35.59 77.04L35.56 77ZM61.46 3.69C61.5394 2.63724 62.0317 1.65856 62.8298 0.967333C63.6278 0.276104 64.6667 -0.0716088 65.72 4.02518e-06C65.813 -0.0103986 65.907 -0.0103986 66 4.02518e-06C66.9737 0.12602 67.8652 0.611022 68.5 1.36C69.1954 2.14533 69.5546 3.17243 69.5 4.22C69.5056 4.28655 69.5056 4.35345 69.5 4.42L68.74 13C68.7449 13.0899 68.7449 13.1801 68.74 13.27C68.6031 14.2401 68.1201 15.1281 67.38 15.77C66.5854 16.4438 65.5594 16.7811 64.52 16.71H64.24C63.2699 16.5732 62.3819 16.0901 61.74 15.35C61.0662 14.5555 60.7289 13.5294 60.8 12.49C60.7941 12.4201 60.7941 12.3499 60.8 12.28L61.47 3.74L61.46 3.69ZM16.71 16.2C15.9751 15.437 15.5728 14.4136 15.5916 13.3543C15.6103 12.2951 16.0485 11.2865 16.81 10.55C17.5713 9.81683 18.5918 9.41476 19.6486 9.43162C20.7053 9.44849 21.7125 9.88292 22.45 10.64L28.52 16.94C29.2501 17.708 29.6519 18.7304 29.64 19.79C29.6251 20.5797 29.3767 21.3473 28.9262 21.996C28.4757 22.6448 27.8432 23.1456 27.1085 23.4355C26.3738 23.7253 25.5697 23.7911 24.7976 23.6246C24.0255 23.4582 23.32 23.0668 22.77 22.5L16.71 16.2ZM3.84999 59.54C2.81156 59.5015 1.82888 59.0603 1.10999 58.31C0.745869 57.9298 0.460383 57.4814 0.269905 56.9907C0.0794262 56.4999 -0.0122982 55.9763 -8.49215e-06 55.45C0.0288054 54.3926 0.475323 53.3896 1.24183 52.6606C2.00834 51.9315 3.03243 51.5358 4.08999 51.56L12.83 51.74C13.8892 51.7662 14.8947 52.2116 15.6259 52.9784C16.3571 53.7452 16.7542 54.7708 16.73 55.83V55.89V56.04C16.6541 57.0257 16.216 57.9483 15.5 58.63C14.7329 59.3593 13.7081 59.7548 12.65 59.73H12.49L3.85999 59.54H3.84999ZM114.48 53.21H114.61C115.608 53.1852 116.577 53.543 117.32 54.21C117.712 54.5653 118.03 54.9949 118.255 55.4738C118.479 55.9527 118.607 56.4714 118.63 57C118.635 57.0432 118.635 57.0868 118.63 57.13C118.646 58.1264 118.289 59.0928 117.63 59.84C117.277 60.2297 116.851 60.546 116.375 60.7708C115.9 60.9955 115.385 61.1244 114.86 61.15L106.13 61.59C105.072 61.6389 104.038 61.2664 103.255 60.554C102.471 59.8417 102.002 58.8477 101.95 57.79C101.901 56.7322 102.274 55.6981 102.986 54.9145C103.698 54.1309 104.692 53.6618 105.75 53.61C108.67 53.45 111.6 53.28 114.51 53.16L114.48 53.21ZM99.2 17.53C99.8391 16.6902 100.784 16.137 101.829 15.9909C102.875 15.8448 103.935 16.1176 104.78 16.75C105.202 17.0612 105.557 17.4546 105.824 17.9066C106.09 18.3586 106.262 18.8598 106.33 19.38C106.409 19.9055 106.382 20.4414 106.252 20.9565C106.121 21.4716 105.89 21.9555 105.57 22.38L100.32 29.38C100.004 29.8009 99.6084 30.1553 99.1554 30.423C98.7024 30.6907 98.201 30.8664 97.68 30.94C97.1592 31.0134 96.6291 30.9833 96.12 30.8516C95.6108 30.7199 95.1327 30.4891 94.7128 30.1723C94.293 29.8556 93.9398 29.4592 93.6733 29.0058C93.4069 28.5524 93.2324 28.0509 93.16 27.53C93.0825 27.0039 93.1106 26.4676 93.2428 25.9525C93.3751 25.4373 93.6087 24.9538 93.93 24.53L99.19 17.53H99.2ZM74.86 101.53L74.8 103.15V103.72C74.8282 104.785 74.7814 105.851 74.66 106.91L74.05 109.21L43.81 112.03L43.35 110.8L42.45 106L42.51 104.61L74.86 101.61V101.53Z" fill="black"/>
</g>
<defs>
<clipPath id="clip0_24_128">
<rect width="118.64" height="122.88" fill="white"/>
</clipPath>
</defs>
</svg>
