<svg width="145" height="145" viewBox="0 0 145 145" fill="none" xmlns="http://www.w3.org/2000/svg">
<g clip-path="url(#clip0_61_6)">
<path d="M145.181 30.2688C139.823 32.6477 134.08 34.2449 128.042 34.9699C134.204 31.277 138.939 25.4317 141.16 18.4762C135.405 21.8859 129.005 24.3668 122.219 25.7035C116.782 19.9035 109.033 16.2899 100.458 16.2899C83.9867 16.2899 70.6309 29.6344 70.6309 46.1055C70.6309 48.4391 70.9027 50.716 71.4125 52.9024C46.6266 51.6563 24.6613 39.7844 9.9461 21.7387C7.37461 26.1567 5.91328 31.277 5.91328 36.7371C5.91328 47.0797 11.1695 56.2102 19.1785 61.5684C14.2848 61.4098 9.68555 60.0617 5.66406 57.8301C5.66406 57.9547 5.66406 58.0793 5.66406 58.2039C5.66406 72.6586 15.95 84.7004 29.5777 87.4531C27.0855 88.1328 24.4461 88.4953 21.7273 88.4953C19.8016 88.4953 17.9324 88.3141 16.1086 87.9516C19.9148 99.7895 30.9258 108.433 43.9645 108.671C33.7691 116.668 20.9117 121.426 6.93281 121.426C4.51992 121.426 2.15235 121.29 -0.169922 121.007C13.016 129.48 28.6941 134.408 45.5391 134.408C100.39 134.408 130.387 88.9711 130.387 49.5719C130.387 48.2805 130.353 46.9777 130.307 45.709C136.13 41.5063 141.182 36.25 145.181 30.2688Z" fill="#131111"/>
</g>
<defs>
<clipPath id="clip0_61_6">
<rect width="145" height="145" fill="white"/>
</clipPath>
</defs>
</svg>
