<svg width="123" height="102" viewBox="0 0 123 102" fill="none" xmlns="http://www.w3.org/2000/svg">
<g clip-path="url(#clip0_24_131)">
<path fill-rule="evenodd" clip-rule="evenodd" d="M3.34 0H119.54C121.38 0 122.88 1.5 122.88 3.34V80.32C122.88 82.16 121.38 83.66 119.54 83.66H3.34C1.5 83.66 0 82.16 0 80.32V3.34C0 1.5 1.5 0 3.34 0ZM12.57 11.68H22.39V14.24H12.57V11.68ZM27.07 38.8H12.57V36.23H27.07V38.8ZM46.8 38.81H30.02V36.23H46.8V38.81ZM75.66 38.81H49.64V36.24H75.67V38.81H75.66ZM37.25 28.07H88.4V30.6H37.25V28.07ZM25.22 28.05H34.48V30.61H25.22V28.05ZM12.57 28.05H22.39V30.61H12.57V28.05ZM34.77 22.41H12.57V19.87H34.78V22.41H34.77ZM46.8 22.42H37.54V19.86H46.8V22.42ZM75.66 22.43H49.64V19.86H75.67V22.43H75.66ZM37.25 11.68H59.46V14.22H37.25V11.68ZM25.22 11.68H34.48V14.24H25.22V11.68ZM91.2 62.08L82.1 56.98V54.06L91.2 48.96V52.32L84.86 55.48L91.2 58.74V62.08ZM92.89 64.35L96.18 46.44H98.09L94.78 64.35H92.89ZM99.48 62.1V58.76L105.83 55.56L99.48 52.32V49L108.58 54.14V57.02L99.48 62.1ZM46.29 88.27H76.59C76.67 93.51 78.83 98.2 84.68 101.9H38.2C42.88 98.51 46.31 94.39 46.29 88.27ZM61.44 72.41C63.81 72.41 65.73 74.33 65.73 76.7C65.73 79.07 63.81 80.99 61.44 80.99C59.07 80.99 57.15 79.07 57.15 76.7C57.15 74.33 59.07 72.41 61.44 72.41ZM10.05 6.29H112.84C114.47 6.29 115.79 7.62 115.79 9.24V66.76C115.79 68.38 114.46 69.71 112.84 69.71H10.05C8.43 69.71 7.1 68.38 7.1 66.76V9.24C7.09 7.62 8.42 6.29 10.05 6.29Z" fill="black"/>
</g>
<defs>
<clipPath id="clip0_24_131">
<rect width="122.88" height="101.91" fill="white"/>
</clipPath>
</defs>
</svg>
