<svg width="77" height="67" viewBox="0 0 77 67" fill="none" xmlns="http://www.w3.org/2000/svg">
<path fill-rule="evenodd" clip-rule="evenodd" d="M0.566062 32.9688C0.691686 25.3446 3.84274 17.9837 9.48212 12.1409C15.1215 6.298 22.9002 2.33477 31.4923 0.926688C40.0844 -0.481394 48.9581 0.752825 56.601 4.41899C64.2438 8.08515 70.1827 13.9563 73.4054 21.0318C76.6281 28.1073 76.9351 35.9491 74.2741 43.2206C71.6131 50.4922 66.1488 56.7434 58.8126 60.9088C51.4763 65.0741 42.7222 66.8958 34.0424 66.0634C25.3626 65.2309 17.2943 61.7958 11.2127 56.3436C7.7585 53.2578 5.03975 49.6042 3.21266 45.5928C1.38557 41.5814 0.486141 37.2912 0.566062 32.9688ZM28.3943 30.5568C27.9902 30.1786 27.5028 29.8753 26.9611 29.665C26.4195 29.4546 25.8345 29.3414 25.2409 29.3322C24.6472 29.3229 24.057 29.4177 23.5052 29.6109C22.9534 29.8042 22.4512 30.092 22.0283 30.4573C21.6055 30.8226 21.2706 31.2579 21.0434 31.7375C20.8163 32.2172 20.7016 32.7313 20.7061 33.2495C20.7106 33.7677 20.8342 34.2794 21.0696 34.7543C21.305 35.2293 21.6474 35.6578 22.0766 36.0144L35.0397 47.4643C35.8584 48.1851 36.97 48.5953 38.1351 48.6065C39.3002 48.6176 40.4255 48.2289 41.2687 47.5241L54.3471 36.5542C54.7703 36.2029 55.1104 35.7827 55.348 35.3174C55.5856 34.8521 55.7161 34.3508 55.732 33.8423C55.7478 33.3338 55.6488 32.8279 55.4405 32.3536C55.2322 31.8792 54.9187 31.4457 54.518 31.0778C54.1173 30.7099 53.6371 30.4147 53.1049 30.2092C52.5728 30.0037 51.999 29.8919 51.4164 29.8801C50.8338 29.8683 50.2538 29.9567 49.7095 30.1404C49.1652 30.3241 48.6672 30.5995 48.2441 30.9507L42.7202 35.5748L42.857 22.2575C42.8821 21.7368 42.7868 21.2174 42.5767 20.7304C42.3666 20.2434 42.046 19.7987 41.6341 19.4229C41.2222 19.0472 40.7274 18.748 40.1793 18.5433C39.6312 18.3386 39.041 18.2326 38.444 18.2315C37.847 18.2305 37.2553 18.3345 36.7044 18.5372C36.1535 18.74 35.6546 19.0375 35.2376 19.4118C34.8205 19.7861 34.4938 20.2296 34.277 20.7159C34.0601 21.2022 33.9576 21.7212 33.9756 22.242L33.8364 35.3343L28.3945 30.5461L28.3943 30.5568Z" fill="white"/>
</svg>
