<svg width="123" height="96" viewBox="0 0 123 96" fill="none" xmlns="http://www.w3.org/2000/svg">
<g clip-path="url(#clip0_24_120)">
<path fill-rule="evenodd" clip-rule="evenodd" d="M48.9999 49.58L45.3699 53.21V46L48.9999 49.58ZM104.47 21.23H104.74C105.109 21.2306 105.473 21.3124 105.806 21.4697C106.14 21.627 106.435 21.8558 106.67 22.14C118 33.88 124 59.37 122.7 76.43C122.492 80.5685 121.533 84.6347 119.87 88.43C118.13 92.01 115.62 94.36 112.26 94.98C107.98 95.77 102.63 93.51 96.1999 86.98C95.3699 86.14 94.5099 85.29 93.6299 84.42C90.4022 81.4176 87.4473 78.1348 84.7999 74.61H38.0799C35.4337 78.151 32.4715 81.4445 29.2299 84.45C28.3599 85.31 27.4999 86.15 26.6799 86.98C20.2499 93.53 14.8999 95.79 10.6199 94.98C7.25993 94.39 4.73993 92 2.99993 88.46C1.33785 84.6643 0.378954 80.5984 0.169928 76.46C-1.15007 59.29 4.89993 33.65 16.3999 22C16.6314 21.7623 16.9082 21.5734 17.2139 21.4446C17.5197 21.3158 17.8481 21.2496 18.1799 21.25H18.4599C25.5499 11.49 41.4599 11.39 48.5499 21.25H56.4599C55.8499 6.29 59.9999 2.54 66.1299 2.12C68.4803 2.0714 70.8287 2.28946 73.1299 2.77C77.7799 3.54 82.9299 4.39 86.5799 0.770004C86.8108 0.53477 87.0862 0.347913 87.3901 0.220356C87.694 0.0927983 88.0203 0.0270996 88.3499 0.0270996C88.6795 0.0270996 89.0058 0.0927983 89.3097 0.220356C89.6136 0.347913 89.8891 0.53477 90.1199 0.770004C90.3528 1.00223 90.5375 1.27811 90.6635 1.58184C90.7895 1.88556 90.8544 2.21117 90.8544 2.54C90.8544 2.86884 90.7895 3.19445 90.6635 3.49817C90.5375 3.8019 90.3528 4.07778 90.1199 4.31C84.6499 9.77 78.1199 8.7 72.3199 7.73C70.3831 7.32458 68.4087 7.12679 66.4299 7.14C63.1199 7.36 60.9199 10.14 61.4299 21.26H74.3399C81.4099 11.47 97.3399 11.44 104.43 21.26L104.47 21.23ZM39.1899 37V43.66H45.8499C53.3899 43.66 53.3899 55.06 45.8499 55.06H39.1899V61.72C39.1899 69.26 27.7899 69.26 27.7899 61.72V55.07H21.1299C13.5899 55.07 13.5899 43.67 21.1299 43.67H27.7899V37C27.7899 29.46 39.1899 29.46 39.1899 37ZM91.2699 31.2C92.0054 31.9357 92.5062 32.8729 92.709 33.8932C92.9118 34.9135 92.8075 35.9711 92.4094 36.9321C92.0112 37.8931 91.337 38.7145 90.472 39.2924C89.6071 39.8703 88.5902 40.1788 87.5499 40.1788C86.5097 40.1788 85.4928 39.8703 84.6278 39.2924C83.7628 38.7145 83.0887 37.8931 82.6905 36.9321C82.2923 35.9711 82.188 34.9135 82.3909 33.8932C82.5937 32.8729 83.0945 31.9357 83.8299 31.2C84.3177 30.7102 84.8974 30.3215 85.5358 30.0563C86.1742 29.7911 86.8587 29.6546 87.5499 29.6546C88.2412 29.6546 88.9257 29.7911 89.564 30.0563C90.2024 30.3215 90.7821 30.7102 91.2699 31.2ZM91.2699 54.14C92.0054 54.8757 92.5062 55.8129 92.709 56.8332C92.9118 57.8535 92.8075 58.911 92.4094 59.8721C92.0112 60.8331 91.337 61.6545 90.472 62.2324C89.6071 62.8103 88.5902 63.1188 87.5499 63.1188C86.5097 63.1188 85.4928 62.8103 84.6278 62.2324C83.7628 61.6545 83.0887 60.8331 82.6905 59.8721C82.2923 58.911 82.188 57.8535 82.3909 56.8332C82.5937 55.8129 83.0945 54.8757 83.8299 54.14C84.3177 53.6502 84.8974 53.2615 85.5358 52.9963C86.1742 52.7311 86.8587 52.5946 87.5499 52.5946C88.2412 52.5946 88.9257 52.7311 89.564 52.9963C90.2024 53.2615 90.7821 53.6502 91.2699 54.14ZM103.89 42.14C104.625 42.8757 105.126 43.8129 105.329 44.8332C105.532 45.8535 105.428 46.911 105.029 47.8721C104.631 48.8331 103.957 49.6545 103.092 50.2324C102.227 50.8103 101.21 51.1188 100.17 51.1188C99.1297 51.1188 98.1128 50.8103 97.2478 50.2324C96.3828 49.6545 95.7087 48.8331 95.3105 47.8721C94.9123 46.911 94.8081 45.8535 95.0109 44.8332C95.2137 43.8129 95.7145 42.8757 96.4499 42.14C97.4377 41.1556 98.7754 40.6029 100.17 40.6029C101.564 40.6029 102.902 41.1556 103.89 42.14ZM78.6399 42.14C79.3754 42.8757 79.8762 43.8129 80.079 44.8332C80.2818 45.8535 80.1775 46.911 79.7794 47.8721C79.3812 48.8331 78.707 49.6545 77.842 50.2324C76.9771 50.8103 75.9602 51.1188 74.9199 51.1188C73.8797 51.1188 72.8628 50.8103 71.9978 50.2324C71.1328 49.6545 70.4587 48.8331 70.0605 47.8721C69.6623 46.911 69.5581 45.8535 69.7609 44.8332C69.9637 43.8129 70.4645 42.8757 71.1999 42.14C71.6877 41.6502 72.2674 41.2615 72.9058 40.9963C73.5442 40.7311 74.2287 40.5946 74.9199 40.5946C75.6112 40.5946 76.2957 40.7311 76.934 40.9963C77.5724 41.2615 78.1521 41.6502 78.6399 42.14ZM33.6399 34.26L37.2699 37.89H30.0499L33.6799 34.26H33.6399ZM18.3899 49.58L21.9999 53.21V46L18.3699 49.63L18.3899 49.58ZM33.6799 64.86L37.3099 61.23H30.0499L33.6799 64.86Z" fill="black"/>
</g>
<defs>
<clipPath id="clip0_24_120">
<rect width="122.88" height="95.16" fill="white"/>
</clipPath>
</defs>
</svg>
