<svg width="145" height="145" viewBox="0 0 145 145" fill="none" xmlns="http://www.w3.org/2000/svg">
<path d="M51.5939 135.824C53.6558 134.937 55.1 132.887 55.1 130.5V114.84C55.1 114.269 55.1464 113.674 55.2189 113.071C55.1783 113.083 55.1406 113.091 55.1 113.1C55.1 113.1 46.4 113.1 44.66 113.1C40.31 113.1 36.54 111.36 34.8 107.88C32.77 104.11 31.9 97.73 26.68 94.2501C25.81 93.6701 26.39 92.8 28.13 92.8C29.87 93.09 33.64 95.41 35.96 98.6001C38.57 101.79 41.18 104.4 45.82 104.4C53.0323 104.4 56.898 104.038 59.2239 102.791C61.9324 98.7625 65.6821 95.7001 69.6 95.7001V95.6275C53.1628 95.0997 42.6619 89.6362 37.7725 81.2001C27.144 81.3219 17.8901 82.3745 12.6092 83.2504C12.441 82.3021 12.296 81.3479 12.1713 80.388C17.3826 79.5296 26.216 78.5117 36.3718 78.3175C36.047 77.5171 35.7657 76.6964 35.5279 75.8553C25.346 75.3391 16.559 75.7422 11.7856 76.1367C11.7276 75.1739 11.6493 74.214 11.6377 73.2395C16.4198 72.848 24.969 72.4566 34.8899 72.9176C34.6608 71.4677 34.5129 69.9857 34.5129 68.443C34.5129 63.513 36.2529 58.2929 39.4429 53.943C37.9929 49.013 35.9629 38.573 40.0229 34.803C47.8529 34.803 53.3629 38.5729 55.9729 40.8929C60.9 38.8601 66.41 37.7001 72.5 37.7001C78.59 37.7001 84.1 38.8601 88.74 40.8901C91.35 38.57 96.86 34.8 104.69 34.8C109.04 38.8601 106.72 49.3001 105.27 53.9401C108.46 58.2901 110.2 63.2201 109.91 68.4401C109.91 69.8437 109.78 71.198 109.591 72.5262C119.738 72.0274 128.519 72.4276 133.383 72.822C133.377 73.7992 133.287 74.7533 133.235 75.7191C128.389 75.3189 119.387 74.9071 108.994 75.461C108.736 76.4353 108.422 77.3837 108.051 78.3029C118.335 78.4363 127.38 79.4311 132.84 80.3011C132.716 81.2639 132.571 82.2179 132.402 83.1634C126.858 82.276 117.407 81.2378 106.653 81.1856C101.825 89.5318 91.5153 94.9751 75.4 95.6102V95.7001C82.94 95.7001 89.9 107.01 89.9 114.84V130.5C89.9 132.887 91.3442 134.937 93.4061 135.824C119.973 127.032 139.2 101.976 139.2 72.5001C139.2 35.7222 109.281 5.80005 72.5 5.80005C35.7193 5.80005 5.80005 35.7222 5.80005 72.5001C5.80005 101.976 25.027 127.032 51.5939 135.824Z" fill="white"/>
</svg>
