<svg width="145" height="145" viewBox="0 0 145 145" fill="none" xmlns="http://www.w3.org/2000/svg">
<path d="M118.9 11.6H26.1001C18.0961 11.6 11.6001 18.096 11.6001 26.1V118.9C11.6001 126.904 18.0961 133.4 26.1001 133.4H118.9C126.904 133.4 133.4 126.904 133.4 118.9V26.1C133.4 18.096 126.904 11.6 118.9 11.6ZM49.3001 58V113.1H31.9001V58H49.3001ZM31.9001 41.963C31.9001 37.903 35.3801 34.8 40.6001 34.8C45.8201 34.8 49.0971 37.903 49.3001 41.963C49.3001 46.023 46.0521 49.3 40.6001 49.3C35.3801 49.3 31.9001 46.023 31.9001 41.963ZM113.1 113.1H95.7001C95.7001 113.1 95.7001 86.246 95.7001 84.1C95.7001 78.3 92.8001 72.5 85.5501 72.384H85.3181C78.3001 72.384 75.4001 78.358 75.4001 84.1C75.4001 86.739 75.4001 113.1 75.4001 113.1H58.0001V58H75.4001V65.424C75.4001 65.424 80.9971 58 92.2491 58C103.762 58 113.1 65.917 113.1 81.954V113.1Z" fill="white"/>
</svg>
