<svg width="495" height="554" viewBox="0 0 495 554" fill="none" xmlns="http://www.w3.org/2000/svg">
<g clip-path="url(#clip0_24_124)">
<path fill-rule="evenodd" clip-rule="evenodd" d="M208.327 485.742L173.506 498.546L208.327 511.53V541.557L162.267 515.994C142.093 504.813 141.909 492.595 162.267 481.323L208.327 455.715V485.742ZM181.013 344.537C214.545 381.416 290.497 374.924 318.547 344.537C311.528 336.375 305.036 327.792 299.11 318.838L295.241 313.338C281.483 322.444 265.187 327.168 248.582 326.864C229.919 326.998 211.821 320.602 197.549 308.83C193.726 320.011 188.337 335.385 182.718 342.733C182.232 343.352 181.658 343.898 181.013 344.356V344.537ZM311.546 409.909H46.0595C43.4675 410.045 40.9341 410.716 38.6254 411.877C36.3166 413.039 34.2847 414.664 32.6626 416.648C31.0405 418.632 29.865 420.928 29.213 423.388C28.561 425.847 28.4473 428.414 28.8793 430.919L45.1383 554H3.68486C3.68486 488.267 -20.1278 407.655 50.1588 369.153C76.3205 354.861 143.751 350.037 173.137 331.147C178.056 320.805 182.227 310.139 185.619 299.227C185.942 298.235 185.389 299.858 185.896 298.37C175.346 286.582 165.939 273.859 157.799 260.364L133.572 222.808C124.683 209.869 120.077 198.012 119.754 188.318C119.6 184.01 120.501 179.729 122.38 175.83C124.206 171.977 127.093 168.699 130.717 166.362C132.552 165.181 134.514 164.198 136.566 163.432C134.89 140.928 134.506 118.35 135.415 95.8048C135.971 90.6071 136.972 85.4643 138.408 80.4309C147.39 49.593 174.519 27.0507 205.655 16.5009C220.763 11.4063 214.913 -0.766519 230.297 -8.01012e-05C266.5 1.93856 322.416 24.7514 343.741 48.9618C373.772 82.8655 366.034 124.614 365.021 166.182C368.116 166.983 370.93 168.594 373.162 170.842C375.393 173.089 376.957 175.889 377.687 178.941C379.621 186.425 377.687 196.975 371.008 211.357C371.008 211.357 371.008 211.853 370.594 212.123L342.958 256.622C332.318 273.799 321.494 290.976 307.078 304.231L306.341 304.862L310.947 311.174C315.553 318.072 321.172 325.917 326.239 332.048C356.269 350.082 422.272 355.222 448.112 369.288C512.595 404.544 490.624 491.603 494.171 554.135H453.132L469.391 431.054C469.823 428.549 469.709 425.982 469.057 423.523C468.405 421.064 467.23 418.767 465.608 416.783C463.986 414.8 461.954 413.174 459.645 412.013C457.336 410.851 454.803 410.181 452.211 410.045H311.546V409.909ZM150.338 174.523C146.075 174.492 141.88 175.566 138.178 177.633C136.669 178.625 135.46 179.995 134.678 181.601C133.829 183.612 133.451 185.785 133.572 187.958C133.803 195.171 137.672 204.594 145.133 215.459L169.36 253.195C179.079 268.299 189.304 283.718 201.924 295.034C214.432 306.986 231.241 313.642 248.721 313.564C257.805 313.728 266.833 312.123 275.278 308.841C283.723 305.559 291.417 300.667 297.912 294.448C310.993 282.455 321.264 266.089 331.443 249.679L358.71 205.676C363.823 194.315 365.665 186.695 364.514 182.277C363.823 179.617 360.829 178.31 355.717 178.039C354.611 178.039 353.506 178.039 352.4 178.039C351.127 177.974 349.851 177.974 348.577 178.039C347.874 178.13 347.162 178.13 346.459 178.039C343.964 178.149 341.464 178.013 338.997 177.633L348.209 137.057C278.843 147.742 226.935 97.2926 153.608 126.958L158.905 174.883C156.105 175.041 153.297 174.92 150.522 174.523H150.338ZM286.535 485.607L321.356 498.411L286.535 511.395V541.421L332.595 515.858C352.769 504.677 352.907 492.459 332.595 481.188L286.535 455.58V485.607ZM246.786 550.032H223.756L252.221 441.559H275.251L246.786 550.032Z" fill="black"/>
</g>
<defs>
<clipPath id="clip0_24_124">
<rect width="495" height="554" fill="white"/>
</clipPath>
</defs>
</svg>
