<svg width="145" height="145" viewBox="0 0 145 145" fill="none" xmlns="http://www.w3.org/2000/svg">
<path fill-rule="evenodd" clip-rule="evenodd" d="M118.685 5.48279L109.792 7.01209L119.444 59.8125L127.691 58.7363L118.685 5.48279ZM86.9095 18.4195L78.5946 23.4265L108.172 66.8019L115.479 62.2933L86.9095 18.4195ZM60.311 43.5906L55.4286 51.339L100.05 78.3L104.117 71.2765L60.311 43.5906ZM47.4876 70.7668L45.3239 79.4668L96.7423 92.4941L97.5579 84.689L47.4876 70.7668ZM26.1001 84.1V139.155L112.817 139.2V139.155C112.908 139.155 113.1 84.1 113.1 84.1H104.4V130.5H34.8001V84.1H26.1001ZM43.9419 93.8308L43.2169 102.486L95.7001 107.3L96.2892 100.05L43.9419 93.8308ZM43.2169 113.1L43.5001 121.8L95.7001 121.596V113.1H43.2169Z" fill="white"/>
</svg>
