<svg width="145" height="145" viewBox="0 0 145 145" fill="none" xmlns="http://www.w3.org/2000/svg">
<g clip-path="url(#clip0_24_105)">
<path d="M145.181 30.2687C139.823 32.6476 134.08 34.2449 128.042 34.9699C134.204 31.2769 138.939 25.4316 141.16 18.4761C135.405 21.8859 129.005 24.3667 122.219 25.7035C116.782 19.9035 109.033 16.2898 100.458 16.2898C83.9867 16.2898 70.6309 29.6343 70.6309 46.1054C70.6309 48.439 70.9027 50.716 71.4125 52.9023C46.6266 51.6562 24.6613 39.7843 9.9461 21.7386C7.37461 26.1566 5.91328 31.2769 5.91328 36.7371C5.91328 47.0796 11.1695 56.2101 19.1785 61.5683C14.2848 61.4097 9.68555 60.0617 5.66406 57.83C5.66406 57.9546 5.66406 58.0792 5.66406 58.2039C5.66406 72.6585 15.95 84.7003 29.5777 87.4531C27.0855 88.1328 24.4461 88.4953 21.7273 88.4953C19.8016 88.4953 17.9324 88.314 16.1086 87.9515C19.9148 99.7894 30.9258 108.433 43.9645 108.671C33.7691 116.668 20.9117 121.426 6.93281 121.426C4.51992 121.426 2.15235 121.29 -0.169922 121.007C13.016 129.48 28.6941 134.408 45.5391 134.408C100.39 134.408 130.387 88.971 130.387 49.5718C130.387 48.2804 130.353 46.9777 130.307 45.7089C136.13 41.5062 141.182 36.2499 145.181 30.2687Z" fill="white"/>
</g>
<defs>
<clipPath id="clip0_24_105">
<rect width="145" height="145" fill="white"/>
</clipPath>
</defs>
</svg>
